{"glyphs":{":":{"x_min":0,"x_max":225,"ha":225,"o":"m 76 405 l 80 495 l 129 494 l 174 495 q 171 464 171 448 q 170 432 169 405 l 125 405 q 100 405 76 405 z m 55 0 l 59 90 l 109 89 q 120 89 154 90 q 152 69 151 53 l 149 0 q 117 1 104 1 q 92 1 55 0 z"},"$":{"x_min":0,"x_max":571,"ha":571,"o":"m 89 113 q 139 87 174 77 q 209 68 242 68 q 274 68 301 79 q 328 91 345 115 q 361 140 361 169 q 361 181 359 191 q 356 201 352 210 q 347 219 339 230 q 331 240 325 245 q 320 250 288 280 l 229 333 q 190 368 173 385 q 156 401 142 424 q 127 446 120 469 q 113 492 113 515 q 113 543 123 568 q 132 593 151 614 q 170 634 194 646 q 218 658 266 667 q 267 681 267 707 q 267 732 267 752 l 308 752 q 321 752 348 752 q 344 708 344 667 q 375 664 396 660 q 417 656 445 648 q 446 615 451 569 q 412 586 382 592 q 353 599 326 599 q 296 599 272 589 q 248 579 233 556 q 218 534 218 507 q 218 492 222 477 q 226 462 238 446 q 250 429 263 416 q 276 403 323 360 q 370 318 394 295 q 417 271 432 250 q 446 229 453 208 q 459 187 459 163 q 459 141 453 119 q 446 97 433 78 q 420 59 403 45 q 386 31 367 22 q 348 14 313 4 q 312 -24 312 -42 q 312 -57 313 -86 q 287 -85 273 -85 q 259 -85 231 -86 q 234 -43 235 -2 q 190 2 161 9 q 132 16 93 32 q 92 81 89 113 z"},"?":{"x_min":0,"x_max":468,"ha":468,"o":"m 158 134 l 162 202 q 164 242 167 258 q 170 274 175 285 q 180 297 192 312 q 208 334 251 382 q 293 429 306 446 q 318 463 328 482 q 337 500 337 521 q 337 550 320 573 q 302 595 268 605 q 233 615 192 615 q 159 615 124 610 q 89 605 30 590 q 40 635 43 663 q 137 677 215 677 q 279 677 329 661 q 380 645 405 610 q 431 575 431 535 q 431 518 426 498 q 422 478 407 452 q 393 426 370 399 q 347 372 320 343 q 292 314 280 300 q 269 287 262 276 q 255 265 252 254 q 249 244 246 228 q 243 211 241 187 l 237 134 q 218 135 198 135 q 177 135 158 134 z m 142 0 l 147 86 l 197 86 l 247 86 q 244 55 244 35 q 243 16 242 0 q 212 1 193 1 q 173 1 142 0 z"},"<":{"x_min":0,"x_max":502,"ha":502,"o":"m 467 573 l 467 496 l 117 335 l 467 174 l 467 98 l 34 302 l 34 369 z"},"'":{"x_min":0,"x_max":179,"ha":179,"o":"m 69 501 q 71 544 71 577 l 70 667 l 105 666 l 139 667 q 130 583 125 501 q 109 502 99 502 q 85 502 69 501 z"},"=":{"x_min":0,"x_max":571,"ha":571,"o":"m 66 438 q 169 436 299 436 q 427 436 532 438 q 529 415 528 379 q 395 382 295 382 q 195 382 62 379 q 65 406 66 438 z m 57 307 q 190 305 290 305 q 389 305 522 307 q 520 282 519 249 q 386 251 286 251 q 187 251 53 249 q 57 276 57 307 z"},"a":{"x_min":0,"x_max":531,"ha":531,"o":"m 86 416 q 91 438 96 479 q 154 495 198 500 q 241 506 282 506 q 326 506 364 498 q 402 490 428 472 q 453 454 461 430 q 470 407 470 380 q 470 346 465 267 q 459 188 457 120 q 454 53 454 0 q 428 1 411 1 q 396 1 367 0 l 377 133 l 384 291 q 367 278 359 272 q 350 267 339 262 q 329 258 316 254 q 303 250 265 239 q 228 229 212 224 q 179 213 159 202 q 140 191 126 179 q 113 166 108 153 q 102 138 102 121 q 102 94 117 75 q 133 55 156 48 q 180 40 213 40 q 234 40 256 43 q 279 46 316 58 q 310 39 301 0 q 265 -7 243 -9 q 220 -11 200 -11 q 133 -11 96 5 q 58 21 40 52 q 21 84 21 122 q 21 144 28 163 q 34 181 45 196 q 57 211 77 227 q 98 242 121 251 q 144 261 174 271 q 204 280 271 296 q 292 301 308 306 q 323 312 334 316 q 346 321 355 328 q 364 334 371 344 q 378 354 382 363 q 385 373 385 383 q 385 407 370 424 q 354 441 329 448 q 304 455 270 455 q 238 455 204 449 q 171 444 147 437 q 123 430 86 416 z"},"L":{"x_min":0,"x_max":492,"ha":492,"o":"m 63 0 q 75 126 83 308 q 91 490 93 667 q 126 666 144 666 l 189 667 l 174 357 l 162 65 l 255 64 q 358 64 401 65 q 443 66 482 68 q 479 38 478 0 q 367 1 282 1 z"},"3":{"x_min":0,"x_max":571,"ha":571,"o":"m 56 15 q 54 57 49 90 q 104 69 148 61 q 191 53 229 53 q 279 53 320 70 q 361 86 387 119 q 413 152 413 196 q 413 232 394 260 q 375 288 336 302 q 298 317 232 317 q 202 317 165 313 q 168 355 168 381 q 194 376 214 376 q 266 376 310 389 q 354 402 378 436 q 402 469 402 507 q 402 532 391 555 q 380 577 360 591 q 339 605 311 611 q 283 616 254 616 q 217 616 183 612 q 148 607 100 595 q 106 618 112 663 q 169 671 203 675 q 236 678 267 678 q 318 678 364 669 q 409 660 439 639 q 470 618 485 586 q 499 555 499 518 q 499 491 491 464 q 482 438 469 418 q 456 398 439 386 q 423 373 405 365 q 387 356 350 345 q 389 341 408 334 q 428 328 446 315 q 465 302 478 283 q 492 264 498 240 q 505 216 505 190 q 505 144 484 104 q 463 63 424 37 q 386 11 337 0 q 288 -11 235 -11 q 196 -11 156 -5 q 115 0 56 15 z"},";":{"x_min":0,"x_max":225,"ha":225,"o":"m 75 405 q 77 434 78 451 q 78 468 80 495 l 129 494 l 174 495 q 172 464 171 448 q 170 432 169 405 l 125 405 q 100 405 75 405 z m 6 -107 q 43 -5 68 73 q 101 73 121 73 q 140 73 173 73 q 155 43 141 21 q 127 -1 98 -53 l 65 -107 q 48 -106 36 -106 q 23 -106 6 -107 z"},"J":{"x_min":0,"x_max":419,"ha":419,"o":"m -15 6 q -17 46 -21 82 q 30 66 57 62 q 84 57 111 57 q 137 57 160 63 q 181 69 196 78 q 208 86 217 96 q 228 109 235 127 q 244 146 247 170 q 251 206 256 312 l 261 485 l 265 667 l 312 666 l 360 667 q 350 514 345 398 l 338 213 q 335 145 327 108 q 318 72 293 46 q 268 20 226 5 q 184 -10 131 -10 q 67 -10 -15 6 z"},"V":{"x_min":0,"x_max":671,"ha":671,"o":"m 255 0 l 229 85 l 21 667 q 54 666 72 666 l 118 667 l 133 614 q 138 597 144 580 l 317 72 l 566 578 q 575 595 583 613 q 591 630 606 667 q 642 666 657 666 l 706 667 q 660 583 588 443 l 462 195 q 407 87 367 0 q 332 1 312 1 q 292 1 255 0 z"},"\"":{"x_min":0,"x_max":290,"ha":290,"o":"m 69 501 q 71 544 71 577 l 70 667 l 105 666 l 139 667 q 130 583 125 501 q 109 502 99 502 q 85 502 69 501 z m 181 501 q 182 544 182 577 l 182 667 l 216 666 l 250 667 q 241 591 236 501 q 220 502 210 502 q 197 502 181 501 z"},"7":{"x_min":0,"x_max":571,"ha":571,"o":"m 110 0 l 269 321 l 404 604 q 350 604 287 604 q 182 604 79 599 q 82 634 83 667 q 179 666 302 666 l 501 667 l 498 593 l 487 573 q 481 562 430 454 l 277 132 q 250 72 220 0 q 184 0 167 0 z"},"S":{"x_min":0,"x_max":476,"ha":476,"o":"m 39 18 q 37 64 32 98 q 84 74 125 64 q 167 54 205 54 q 241 54 273 66 q 304 79 320 101 q 336 124 336 153 q 336 170 331 185 q 325 200 313 216 q 301 231 272 257 q 242 283 188 329 l 152 360 q 131 377 115 395 q 98 412 87 428 q 76 444 70 457 q 63 470 60 486 q 57 501 57 518 q 57 560 80 597 q 103 633 149 655 q 195 677 271 677 q 325 677 404 663 q 405 631 411 586 q 336 612 275 612 q 233 612 205 598 q 176 584 162 563 q 147 541 147 518 q 147 504 151 491 q 155 479 163 467 q 174 450 190 432 q 207 415 236 390 q 244 384 292 344 q 341 304 363 282 q 385 260 398 241 q 412 223 419 201 q 426 179 426 154 q 426 115 409 82 q 393 49 361 28 q 330 7 291 -2 q 252 -11 210 -11 q 177 -11 141 -6 q 105 0 39 18 z"},"}":{"x_min":0,"x_max":398,"ha":398,"o":"m 202 223 q 186 230 178 237 q 170 244 164 256 q 157 268 154 285 q 151 303 151 324 q 151 359 156 429 q 160 499 160 528 q 160 556 155 570 q 149 584 140 594 q 130 604 114 609 q 98 614 71 615 l 72 654 q 72 659 71 667 q 105 667 121 665 q 149 661 171 651 q 193 642 206 628 q 218 615 225 593 q 233 568 233 542 q 233 533 230 491 l 225 395 q 222 340 222 323 q 222 302 226 285 q 230 268 246 256 q 261 243 278 239 q 276 224 275 207 q 263 204 253 197 q 241 190 234 182 q 228 175 223 165 q 218 154 216 137 q 213 121 212 80 l 211 -2 q 210 -62 207 -89 q 204 -123 196 -145 q 188 -167 174 -182 q 161 -196 144 -204 q 122 -213 93 -217 q 78 -219 37 -220 q 40 -203 41 -169 q 67 -168 85 -163 q 103 -157 114 -146 q 125 -135 130 -122 q 135 -108 138 -71 q 140 -33 140 22 q 140 52 142 90 q 143 127 146 144 q 148 161 153 173 q 158 186 165 195 q 171 204 179 209 q 187 215 202 223 z"},"Z":{"x_min":0,"x_max":575,"ha":575,"o":"m 24 0 q 28 47 28 76 l 50 103 q 50 103 96 162 l 362 503 l 438 603 l 406 604 l 254 604 q 217 604 171 603 q 126 602 67 598 q 69 624 69 651 q 69 657 69 667 q 169 666 317 666 l 411 666 l 545 667 q 542 636 542 591 l 510 554 q 501 542 457 484 l 388 394 q 362 360 268 238 l 132 64 q 148 64 337 64 q 444 64 516 69 q 513 30 513 0 q 405 1 280 1 l 112 0 z"},"x":{"x_min":0,"x_max":483,"ha":483,"o":"m -13 0 l 118 176 l 184 266 l 38 495 q 73 494 90 494 q 112 494 137 495 q 164 443 242 315 q 337 450 366 495 q 392 494 413 494 q 433 494 461 495 l 378 385 q 366 370 292 268 q 348 176 385 120 l 463 0 q 433 1 414 1 q 391 1 362 0 q 337 49 299 110 l 234 217 l 174 131 q 123 59 85 0 q 56 1 38 1 q 18 1 -13 0 z"},")":{"x_min":0,"x_max":317,"ha":317,"o":"m 95 667 q 113 666 129 666 q 147 666 164 667 q 188 553 198 464 q 208 376 208 291 q 208 147 180 11 q 152 -125 116 -220 q 95 -219 81 -219 q 66 -219 47 -220 q 71 -146 80 -114 q 94 -60 105 8 q 117 76 124 157 q 131 238 131 313 q 131 362 128 412 q 125 462 120 509 q 114 555 111 577 z"},"&":{"x_min":0,"x_max":689,"ha":689,"o":"m 531 296 q 555 295 569 295 q 583 295 606 296 q 605 245 593 198 q 581 150 557 109 q 585 81 615 53 q 645 25 671 0 q 637 1 619 1 q 597 1 569 0 l 499 66 q 481 52 469 42 q 457 33 438 23 q 419 13 397 5 q 375 -2 346 -6 q 317 -11 287 -11 q 218 -11 164 12 q 109 34 81 77 q 52 120 52 172 q 52 198 60 224 q 67 250 87 275 q 106 301 136 324 q 167 347 221 377 q 186 428 173 462 q 160 496 160 526 q 160 555 174 584 q 187 614 213 636 q 240 658 274 668 q 309 677 346 677 q 372 677 400 673 q 428 668 466 656 q 466 607 467 585 q 438 603 414 609 q 391 616 367 616 q 332 616 303 603 q 275 590 260 565 q 245 540 245 513 q 245 495 250 476 q 256 457 272 429 q 295 390 338 337 q 375 293 419 249 q 437 231 504 167 q 512 184 515 194 q 519 203 522 221 q 526 239 528 257 q 530 274 531 296 z m 454 116 q 393 174 349 221 q 304 269 258 324 q 217 299 194 282 q 172 265 157 246 q 143 226 138 209 q 133 191 133 174 q 133 138 154 109 q 174 81 212 65 q 250 50 297 50 q 325 50 351 55 q 377 61 397 70 q 416 80 427 90 q 439 100 454 116 z"},"_":{"x_min":0,"x_max":502,"ha":502,"o":"m 1 -70 l 501 -70 l 501 -125 l 1 -125 z"},"v":{"x_min":0,"x_max":492,"ha":492,"o":"m 187 0 l 170 49 q 162 73 131 158 l 9 495 q 39 494 56 494 q 74 494 100 495 l 110 460 q 114 446 125 414 l 240 73 l 395 446 l 414 495 q 442 494 459 494 q 477 494 505 495 l 442 358 l 314 74 l 283 0 q 253 1 236 1 q 218 1 187 0 z"},"O":{"x_min":0,"x_max":805,"ha":805,"o":"m 421 677 q 494 677 559 656 q 624 635 673 587 q 723 539 744 479 q 765 418 765 348 q 765 273 741 204 q 718 134 669 86 q 620 38 549 13 q 478 -11 399 -11 q 324 -11 256 11 q 187 33 139 79 q 90 125 69 186 q 47 248 47 317 q 47 394 73 464 q 99 534 150 582 q 200 630 272 654 q 343 677 421 677 z m 416 612 q 357 612 305 594 q 253 575 214 533 q 175 492 156 436 q 138 379 138 318 q 138 262 156 210 q 175 158 211 123 q 247 88 298 72 q 349 55 404 55 q 460 55 512 73 q 563 91 601 130 q 638 169 656 225 q 674 281 674 342 q 674 399 658 452 q 642 504 606 542 q 570 579 521 595 q 471 612 416 612 z"},"(":{"x_min":0,"x_max":320,"ha":320,"o":"m 131 -220 q 110 -136 97 -46 q 83 43 83 142 q 83 298 116 443 q 149 587 177 667 q 197 666 211 666 q 226 666 246 667 l 226 597 q 213 550 202 501 q 191 452 184 406 q 176 359 171 312 q 167 266 164 221 q 162 176 162 131 q 162 78 164 33 q 166 -12 171 -54 q 175 -96 181 -125 q 186 -155 200 -220 q 184 -219 167 -219 q 147 -219 131 -220 z"},"C":{"x_min":0,"x_max":629,"ha":629,"o":"m 583 85 q 576 50 570 9 q 474 -11 394 -11 q 323 -11 256 11 q 190 33 141 78 q 92 124 69 185 q 47 247 47 317 q 47 392 72 462 q 97 532 147 580 q 198 629 269 653 q 341 677 419 677 q 503 677 586 660 q 587 635 592 583 q 538 600 500 606 q 461 611 427 611 q 369 611 316 594 q 263 576 222 537 q 181 498 159 441 q 137 384 137 322 q 137 265 155 214 q 172 163 208 127 q 244 92 293 73 q 342 54 404 54 q 481 54 583 85 z"},"W":{"x_min":0,"x_max":968,"ha":968,"o":"m 248 0 l 171 246 l 32 667 q 59 666 79 666 q 101 666 126 667 l 213 375 l 280 160 l 305 82 q 380 236 447 396 q 404 535 357 667 q 384 666 405 666 q 427 666 453 667 q 466 616 475 585 q 484 554 500 504 q 529 564 567 667 q 594 666 616 666 q 639 666 664 667 q 599 534 538 396 q 583 239 637 82 l 767 372 l 861 590 l 893 667 q 920 666 940 666 q 962 666 988 667 l 832 334 l 721 90 l 681 0 q 654 1 630 1 q 604 1 580 0 q 537 147 486 289 q 414 145 351 0 q 324 1 299 1 q 272 1 248 0 z"},"A":{"x_min":0,"x_max":696,"ha":696,"o":"m -23 0 l 66 168 l 292 611 l 319 667 l 375 666 q 402 666 433 667 l 517 427 l 673 0 l 627 1 q 614 1 575 0 q 562 47 531 136 q 500 225 479 280 l 212 280 l 142 134 l 79 0 l 29 1 q 17 1 -23 0 z m 241 344 l 461 344 l 370 603 z"},"f":{"x_min":0,"x_max":295,"ha":295,"o":"m 68 0 l 74 90 l 87 434 l 26 434 q 28 458 30 494 l 93 494 q 94 539 95 563 q 96 587 101 607 q 106 626 116 639 q 126 653 144 664 q 162 675 186 680 q 209 686 240 686 q 281 686 334 673 q 335 644 339 611 q 293 627 255 627 q 236 627 221 623 q 205 618 196 610 q 186 602 180 588 q 174 575 172 557 q 169 539 169 515 l 169 494 l 305 494 q 302 473 300 434 l 169 434 l 161 184 l 156 0 q 126 1 112 1 q 98 1 68 0 z"},"Q":{"x_min":0,"x_max":810,"ha":810,"o":"m 764 91 q 759 70 750 16 q 655 2 567 -4 q 479 -11 421 -11 q 341 -11 271 9 q 200 28 147 75 q 94 123 71 184 q 47 246 47 317 q 47 393 73 463 q 99 533 149 580 q 199 627 268 652 q 337 677 420 677 q 491 677 556 656 q 622 635 668 591 q 715 546 740 482 q 764 419 764 349 q 764 314 759 281 q 753 248 743 219 q 733 191 718 165 q 702 139 685 121 q 667 103 651 89 q 634 76 610 60 q 644 62 666 66 q 688 70 708 75 q 729 81 764 91 z m 417 612 q 361 612 310 594 q 258 576 219 538 q 179 500 157 442 q 136 384 136 323 q 136 267 150 219 q 165 172 202 133 q 238 93 290 74 q 341 55 398 55 q 458 55 511 75 q 564 94 602 134 q 639 173 657 228 q 675 283 675 343 q 675 430 642 492 q 608 555 549 583 q 489 612 417 612 z"},"w":{"x_min":0,"x_max":835,"ha":835,"o":"m 183 0 l 160 71 l 9 495 q 36 494 52 494 q 68 494 92 495 l 135 363 l 234 76 l 389 495 q 415 494 434 494 q 454 494 478 495 l 590 76 l 727 400 l 765 495 q 792 494 806 494 l 848 495 l 683 126 l 629 0 q 605 1 584 1 q 563 1 535 0 l 445 343 q 437 376 427 410 l 417 384 q 413 374 397 330 l 294 49 q 287 29 277 0 q 252 1 232 1 q 210 1 183 0 z"},"-":{"x_min":0,"x_max":249,"ha":249,"o":"m -1 225 q 2 261 2 290 q 70 288 124 288 q 176 288 246 290 q 242 256 242 225 q 181 228 119 228 q 61 228 -1 225 z"},"E":{"x_min":0,"x_max":565,"ha":565,"o":"m 65 0 l 78 184 l 91 527 l 93 602 q 93 630 93 667 q 204 666 319 666 l 475 667 l 525 667 q 521 633 521 599 l 477 601 q 461 602 422 603 q 382 603 344 603 q 229 603 183 602 l 174 373 q 250 371 309 371 q 374 371 479 373 q 476 339 475 306 l 307 307 q 258 307 170 305 l 161 64 l 212 63 q 350 63 395 64 q 440 65 501 69 q 498 33 497 0 q 379 1 298 1 z"},"s":{"x_min":0,"x_max":397,"ha":397,"o":"m 32 9 l 29 45 q 29 51 25 82 q 101 49 164 49 q 197 49 220 58 q 243 67 255 84 q 266 102 266 120 q 266 130 263 141 q 260 151 253 160 q 247 170 235 181 q 222 193 183 225 q 144 256 123 274 q 103 292 89 311 q 74 330 67 349 q 61 368 61 387 q 61 418 80 448 q 100 477 137 491 q 175 506 225 506 q 281 506 349 493 q 351 455 354 423 q 299 445 246 445 q 217 445 192 438 q 167 430 156 415 q 145 400 145 382 q 145 370 148 359 q 152 349 162 336 q 172 324 187 312 q 201 299 243 266 q 285 232 301 216 q 316 200 328 183 q 339 166 344 149 q 349 132 349 114 q 349 80 329 51 q 309 21 269 5 q 229 -11 179 -11 q 158 -11 129 -8 q 101 -5 81 -2 q 62 2 32 9 z"},">":{"x_min":0,"x_max":502,"ha":502,"o":"m 35 98 l 35 175 l 385 335 l 35 497 l 35 573 l 468 369 l 468 302 z"},"l":{"x_min":0,"x_max":224,"ha":224,"o":"m 56 0 q 65 150 75 356 q 81 506 84 667 l 129 666 q 144 666 173 667 l 158 380 l 147 90 l 145 0 q 116 1 102 1 q 96 1 56 0 z"},"8":{"x_min":0,"x_max":571,"ha":571,"o":"m 188 340 q 157 352 142 363 q 126 373 111 392 q 95 411 87 436 q 80 460 80 488 q 80 532 98 570 q 117 608 151 633 q 186 657 226 667 q 266 677 309 677 q 363 677 410 659 q 457 642 484 602 q 512 563 512 508 q 512 487 508 467 q 504 446 494 427 q 484 407 469 392 q 454 376 439 366 q 424 356 392 342 q 426 333 442 325 q 458 318 474 305 q 489 292 500 275 q 510 258 516 236 q 521 215 521 191 q 521 146 504 108 q 486 69 453 42 q 421 16 373 2 q 325 -11 274 -11 q 203 -11 149 12 q 96 35 70 75 q 44 116 44 168 q 44 191 50 215 q 55 238 68 259 q 81 280 98 295 q 115 310 133 319 q 151 328 188 340 z m 302 618 q 238 618 200 580 q 162 542 162 482 q 162 446 177 420 q 193 394 223 381 q 253 367 289 367 q 329 367 361 384 q 394 401 412 431 q 431 462 431 502 q 431 541 412 568 q 393 595 364 606 q 335 618 302 618 z m 289 310 q 236 310 202 293 q 168 277 150 247 q 131 216 131 178 q 131 143 148 113 q 166 83 203 66 q 239 49 281 49 q 323 49 360 67 q 396 84 416 118 q 436 152 436 192 q 436 247 399 278 q 363 310 289 310 z"},"\\":{"x_min":0,"x_max":412,"ha":412,"o":"m 478 -220 q 454 -219 443 -219 q 431 -219 412 -220 l 314 7 l 21 667 q 43 666 53 666 l 84 667 l 168 472 l 390 -28 z"},"e":{"x_min":0,"x_max":531,"ha":531,"o":"m 460 78 q 454 51 448 9 q 401 -2 367 -7 q 333 -11 298 -11 q 237 -11 189 4 q 140 19 105 55 q 71 91 56 138 q 41 185 41 237 q 41 310 68 372 q 96 435 152 470 q 208 506 294 506 q 338 506 379 493 q 419 480 446 454 q 473 427 488 388 q 502 350 502 304 q 502 286 500 270 l 127 270 q 125 243 125 229 q 125 177 146 134 q 168 91 210 69 q 252 46 307 46 q 370 46 460 78 z m 131 310 l 422 310 q 421 341 418 358 q 415 375 405 393 q 396 412 380 425 q 364 438 342 446 q 320 453 294 453 q 266 453 241 445 q 216 437 197 423 q 177 410 164 391 q 150 373 144 356 q 137 339 131 310 z"},"b":{"x_min":0,"x_max":593,"ha":593,"o":"m 58 0 l 62 55 q 63 69 65 110 l 79 441 l 84 667 q 114 666 131 666 q 148 666 174 667 q 167 604 162 487 q 213 498 246 502 q 279 506 311 506 q 372 506 419 490 q 466 475 496 438 q 527 402 540 359 q 552 315 552 267 q 552 211 537 159 q 521 107 490 67 q 459 26 415 8 q 371 -11 318 -11 q 290 -11 265 -5 q 240 1 220 12 q 200 23 186 37 q 172 50 163 64 q 154 78 143 102 l 141 0 q 113 1 101 1 q 93 1 58 0 z m 157 421 q 154 340 152 314 q 151 288 151 252 q 151 175 168 134 q 186 93 221 72 q 256 51 301 51 q 352 51 389 77 q 426 103 447 156 q 467 209 467 266 q 467 347 425 396 q 382 445 296 445 q 266 445 234 440 q 202 435 157 421 z"},"%":{"x_min":0,"x_max":801,"ha":801,"o":"m 187 674 q 233 674 264 650 q 294 627 310 583 q 326 539 326 480 q 326 412 306 353 q 287 295 252 270 q 217 245 170 245 q 125 245 93 268 q 61 291 45 334 q 30 378 30 432 q 30 502 50 563 q 69 623 106 648 q 142 674 187 674 z m 186 627 q 157 627 134 605 q 111 582 99 536 q 87 490 87 430 q 87 384 97 354 q 107 324 126 307 q 146 291 171 291 q 218 291 242 344 q 267 398 267 484 q 267 535 257 565 q 247 595 228 611 q 210 627 186 627 z m 174 0 l 429 422 l 522 579 l 573 667 q 587 666 603 666 q 618 666 632 667 l 510 467 l 282 83 l 235 0 q 221 1 206 1 q 192 1 174 0 z m 637 422 q 705 422 740 371 q 775 320 775 231 q 775 185 766 139 q 756 93 737 59 q 717 24 687 9 q 657 -7 619 -7 q 573 -7 542 15 q 511 37 495 80 q 479 123 479 180 q 479 251 499 311 q 519 371 555 396 q 592 422 637 422 z m 635 375 q 605 375 583 352 q 560 329 549 283 q 538 238 538 179 q 538 130 547 101 q 557 71 576 55 q 596 39 621 39 q 667 39 692 93 q 716 147 716 233 q 716 282 707 312 q 697 342 678 359 q 660 375 635 375 z"},"m":{"x_min":0,"x_max":858,"ha":858,"o":"m 54 0 l 60 71 q 61 93 63 142 l 75 439 q 76 476 76 495 q 99 494 118 494 q 138 494 158 495 l 154 404 q 170 431 184 447 q 197 463 219 477 q 241 491 269 498 q 297 506 328 506 q 349 506 369 501 q 390 496 407 487 q 424 479 437 467 q 449 456 457 443 q 464 430 472 405 q 502 461 547 483 q 591 506 646 506 q 682 506 715 495 q 748 483 767 462 q 787 441 793 419 q 800 396 800 373 q 800 350 796 303 q 793 256 789 160 q 784 64 784 0 q 758 1 743 1 q 728 1 697 0 q 702 66 706 144 l 712 265 q 715 309 715 340 q 715 369 709 385 q 703 400 690 413 q 677 426 658 432 q 639 439 615 439 q 595 439 579 435 q 563 430 548 421 q 532 412 520 398 q 507 385 498 369 q 489 352 483 328 q 476 299 473 256 q 469 211 467 137 l 463 0 q 435 1 421 1 q 408 1 376 0 q 381 61 384 125 l 390 243 q 393 297 393 336 q 393 361 388 378 q 383 396 369 410 q 356 424 337 432 q 318 439 295 439 q 271 439 249 431 q 227 422 208 406 q 189 389 177 365 q 164 341 157 302 q 150 262 146 165 q 142 67 142 0 q 110 1 99 1 q 86 1 54 0 z"},"#":{"x_min":0,"x_max":571,"ha":571,"o":"m 153 238 l 41 236 q 47 258 52 293 l 164 292 l 179 379 l 67 378 q 71 395 78 435 l 189 434 l 229 667 q 242 666 262 666 q 282 666 293 667 l 251 433 l 365 433 l 405 667 q 417 666 438 666 q 458 666 469 667 q 465 644 427 434 l 486 434 q 529 435 538 435 q 531 407 527 378 l 417 379 l 401 292 l 512 293 q 506 269 501 236 l 391 238 l 350 0 q 337 1 317 1 q 297 1 286 0 l 329 238 l 215 238 l 174 0 q 162 1 142 1 q 122 1 110 0 z m 241 380 l 225 292 l 282 292 l 339 292 l 355 380 z"},",":{"x_min":0,"x_max":225,"ha":225,"o":"m 6 -107 q 43 -5 68 73 q 101 73 121 73 q 140 73 173 73 q 155 43 141 21 q 127 -1 98 -53 l 65 -107 q 48 -106 36 -106 q 23 -106 6 -107 z"},"n":{"x_min":0,"x_max":603,"ha":603,"o":"m 52 0 q 76 306 77 495 l 121 494 q 137 494 163 495 l 157 397 q 169 417 176 428 q 184 439 196 452 q 208 464 225 474 q 241 485 264 492 q 286 499 309 502 q 333 506 355 506 q 397 506 437 496 q 476 485 501 462 q 526 439 534 410 q 543 381 543 348 q 543 342 542 324 q 542 306 541 276 l 531 72 q 530 42 529 0 q 507 1 488 1 q 464 1 443 0 q 448 59 450 114 l 457 228 q 459 286 459 316 q 459 359 445 385 q 430 410 398 424 q 366 438 326 438 q 269 438 229 411 q 191 386 171 340 q 157 308 151 244 q 144 167 141 0 q 113 1 98 1 q 83 1 52 0 z"},"h":{"x_min":0,"x_max":608,"ha":608,"o":"m 58 0 l 70 212 l 81 502 l 84 667 l 128 666 q 145 666 172 667 l 161 497 l 157 396 q 169 417 177 429 q 186 442 199 454 q 213 467 228 476 q 242 484 260 491 q 278 498 304 502 q 329 506 357 506 q 398 506 436 497 q 474 488 501 466 q 528 445 538 415 q 548 385 548 354 q 548 342 548 322 q 546 292 544 251 l 536 72 q 534 42 534 0 q 505 1 490 1 q 474 1 444 0 q 449 53 456 166 q 463 279 463 323 q 463 362 449 388 q 435 414 402 427 q 370 441 330 441 q 293 441 261 430 q 232 419 212 401 q 192 382 180 355 q 167 327 161 297 q 153 251 149 168 q 147 119 144 0 q 117 1 103 1 q 90 1 58 0 z"},"z":{"x_min":0,"x_max":444,"ha":444,"o":"m 21 0 q 23 31 23 73 l 49 103 q 57 112 63 121 l 317 436 q 272 436 223 436 q 144 436 55 431 q 57 463 57 495 q 138 494 240 494 q 332 494 410 495 q 408 476 408 455 l 406 418 q 388 397 371 375 l 114 61 q 162 59 207 59 q 324 59 391 63 q 387 37 386 0 q 306 1 211 1 q 93 1 21 0 z"},"B":{"x_min":0,"x_max":602,"ha":602,"o":"m 66 0 q 74 100 77 162 q 81 224 86 400 q 92 577 92 621 l 91 667 q 157 666 193 666 q 222 666 270 667 q 319 667 345 667 q 398 667 427 662 q 455 657 477 645 q 499 633 514 615 q 529 598 538 571 q 547 545 547 513 q 547 488 541 465 q 535 442 522 422 q 510 401 493 387 q 477 372 461 364 q 446 356 421 347 q 446 340 461 334 q 476 329 491 319 q 506 309 519 295 q 532 280 540 264 q 548 248 552 227 q 557 207 557 184 q 557 153 547 125 q 538 96 521 74 q 503 52 479 37 q 455 22 432 14 q 408 7 370 3 q 332 0 268 0 l 143 0 z m 171 375 l 259 375 q 319 375 340 377 q 362 380 387 390 q 412 400 428 419 q 445 438 452 461 q 460 484 460 507 q 460 531 452 550 q 444 568 428 582 q 412 595 390 601 q 368 606 324 606 l 180 606 z m 159 62 l 286 62 q 340 62 366 67 q 392 73 417 88 q 441 103 456 133 q 470 162 470 195 q 470 223 460 245 q 450 267 430 283 q 411 299 385 306 q 359 313 310 313 l 168 313 z"},"K":{"x_min":0,"x_max":583,"ha":583,"o":"m 181 354 l 304 492 l 408 614 q 419 627 450 667 l 506 666 l 559 667 l 321 403 l 280 356 l 307 321 q 316 310 430 174 l 576 0 q 534 1 520 1 q 498 1 460 0 l 412 65 z m 66 0 l 79 192 l 92 569 q 93 601 93 633 l 92 667 l 142 666 l 189 667 l 179 488 l 165 90 l 163 0 l 116 1 q 109 1 66 0 z"},"R":{"x_min":0,"x_max":566,"ha":566,"o":"m 65 0 l 75 131 l 86 374 l 91 578 q 92 640 92 667 q 150 666 189 666 q 222 666 262 667 q 303 667 329 667 q 374 667 411 661 q 449 655 478 632 q 508 609 522 579 q 536 549 536 511 q 536 475 525 443 q 514 412 492 387 q 471 361 442 345 q 419 333 386 325 q 363 320 324 316 l 410 179 l 499 42 q 508 28 526 0 q 488 1 475 1 q 461 1 423 0 l 388 67 q 377 86 366 105 q 355 125 343 146 l 232 327 q 226 337 210 364 q 248 357 276 357 q 325 357 365 374 q 405 390 427 424 q 448 458 448 499 q 448 521 441 541 q 435 560 420 573 q 405 586 390 592 q 376 598 353 601 q 331 604 305 604 l 236 603 q 191 603 179 604 q 164 275 160 0 l 112 1 q 102 1 65 0 z"},"T":{"x_min":0,"x_max":521,"ha":521,"o":"m 202 0 l 211 149 l 225 459 l 229 602 q 109 602 20 598 q 22 637 23 667 q 147 666 291 666 l 447 667 l 530 667 q 526 624 526 598 q 451 603 359 603 l 319 603 l 309 386 l 298 82 l 298 0 l 251 1 q 245 1 202 0 z"},"P":{"x_min":0,"x_max":543,"ha":543,"o":"m 66 0 l 74 111 l 90 493 l 92 575 q 92 594 92 613 l 92 667 q 153 666 191 666 q 214 666 262 667 q 309 667 333 667 q 395 667 424 658 q 454 649 477 628 q 500 607 513 576 q 526 544 526 507 q 526 445 495 396 q 464 347 410 323 q 356 299 290 299 q 254 299 211 307 q 204 340 195 368 q 233 360 269 360 q 304 360 336 368 q 368 376 391 395 q 414 414 427 442 q 439 471 439 502 q 439 527 430 549 q 421 570 405 582 q 388 595 367 599 q 347 604 307 604 l 266 604 l 215 603 l 177 603 q 171 496 168 409 l 162 208 q 158 94 158 55 l 158 0 l 113 1 q 104 1 66 0 z"},"|":{"x_min":0,"x_max":502,"ha":502,"o":"m 212 667 l 290 667 l 290 -167 l 212 -167 z"},"t":{"x_min":0,"x_max":321,"ha":321,"o":"m 305 64 q 299 41 293 1 q 260 -7 240 -9 q 221 -11 203 -11 q 160 -11 133 0 q 106 11 92 35 q 78 60 78 101 q 78 106 79 120 q 79 134 83 215 l 95 434 l 30 434 q 32 455 34 493 l 100 493 q 103 520 105 586 q 151 595 183 603 q 179 530 179 493 l 314 493 q 312 462 312 434 l 176 434 l 163 159 l 163 138 q 163 103 171 85 q 179 67 195 59 q 211 51 229 51 q 241 51 255 53 q 269 55 305 64 z"},"M":{"x_min":0,"x_max":854,"ha":854,"o":"m 53 0 l 63 90 l 93 454 l 108 667 q 145 666 172 666 q 198 666 234 667 l 245 624 q 250 607 257 584 q 265 561 283 507 l 343 334 l 417 102 l 515 334 l 625 588 q 631 602 637 617 q 643 632 655 667 q 687 666 721 666 q 748 666 783 667 l 777 434 l 774 281 q 774 259 774 238 l 774 126 l 774 63 q 774 52 775 0 q 743 1 732 1 q 717 1 688 0 l 691 62 l 698 414 q 700 473 700 545 l 699 585 l 485 71 l 457 0 q 425 1 412 1 q 397 1 365 0 l 307 184 l 247 365 l 188 540 q 184 552 174 582 l 168 525 l 139 105 q 138 84 137 63 q 137 42 136 0 l 95 1 q 85 1 53 0 z"},"g":{"x_min":0,"x_max":603,"ha":603,"o":"m 86 -143 q 150 -163 194 -169 q 237 -176 273 -176 q 313 -176 348 -165 q 377 -156 397 -139 q 413 -125 423 -104 q 436 -77 441 -34 q 446 1 448 104 q 437 83 427 69 q 417 55 401 41 q 385 26 364 15 q 342 4 314 -3 q 286 -9 255 -9 q 211 -9 172 3 q 133 15 103 43 q 72 72 56 116 q 41 160 41 208 q 41 273 64 333 q 88 393 134 433 q 179 473 237 489 q 294 506 362 506 q 438 506 549 486 l 544 426 l 529 152 q 529 144 527 52 l 524 -49 q 521 -81 515 -105 q 509 -125 500 -144 q 491 -160 478 -174 q 465 -188 448 -199 q 431 -210 411 -217 q 384 -227 354 -231 q 321 -237 288 -237 q 240 -237 194 -232 q 148 -227 91 -213 l 89 -187 q 89 -177 86 -143 z m 461 433 q 407 444 359 444 q 312 444 271 433 q 230 421 196 392 q 162 362 143 314 q 124 267 124 216 q 124 169 141 130 q 159 91 195 71 q 231 51 277 51 q 316 51 347 65 q 378 79 402 108 q 427 138 439 176 q 449 204 454 257 q 458 300 461 433 z"},"j":{"x_min":0,"x_max":226,"ha":226,"o":"m 78 602 q 79 629 80 670 q 101 669 127 669 q 151 669 174 670 q 172 646 171 602 q 145 603 124 603 q 104 603 78 602 z m 165 495 l 155 279 l 147 61 q 143 -70 138 -102 q 134 -138 125 -159 q 118 -175 106 -188 q 95 -202 78 -212 q 59 -224 38 -229 q 9 -237 -28 -237 q -88 -237 -157 -222 q -158 -194 -163 -153 q -105 -174 -57 -174 q -29 -174 -6 -164 q 13 -156 26 -143 q 37 -132 45 -111 q 55 -86 58 -47 q 62 6 67 109 q 69 140 73 259 q 78 424 78 450 l 77 495 q 108 494 122 494 q 135 494 165 495 z"},"i":{"x_min":0,"x_max":225,"ha":225,"o":"m 80 601 q 81 647 81 670 q 108 669 128 669 q 154 669 175 670 q 174 655 172 601 q 146 602 127 602 q 108 602 80 601 z m 58 0 l 66 123 l 75 333 l 79 495 l 124 494 l 168 495 q 163 418 158 335 q 154 252 151 153 q 148 55 148 0 q 118 1 104 1 q 92 1 58 0 z"},"y":{"x_min":0,"x_max":490,"ha":490,"o":"m -26 -226 q -29 -185 -34 -156 q -10 -167 11 -172 q 32 -176 47 -176 q 66 -176 84 -169 q 102 -162 113 -151 q 125 -140 137 -120 q 149 -100 163 -73 q 177 -46 190 -13 l 86 283 l 10 495 q 45 494 57 494 q 71 494 102 495 q 109 461 115 443 q 120 425 138 369 l 212 145 q 224 107 236 63 l 292 198 l 394 437 q 398 447 402 459 q 406 470 415 495 q 446 494 458 494 q 469 494 504 495 q 485 452 412 292 l 230 -110 q 211 -151 196 -172 q 183 -188 168 -201 q 157 -211 142 -218 q 124 -227 103 -232 q 80 -237 56 -237 q 19 -237 -26 -226 z"},"@":{"x_min":0,"x_max":815,"ha":815,"o":"m 585 486 l 578 450 q 578 448 570 399 l 552 283 q 550 267 549 258 q 548 253 548 249 q 548 246 548 243 q 548 226 557 218 q 566 209 580 209 q 609 209 643 239 q 677 268 697 317 q 718 366 718 420 q 718 467 701 508 q 685 550 647 578 q 610 607 560 619 q 510 632 457 632 q 386 632 323 611 q 259 590 210 542 q 160 495 132 426 q 104 356 104 281 q 104 227 122 178 q 140 130 176 97 q 213 64 265 49 q 317 35 376 35 q 408 35 441 39 q 475 43 505 54 q 535 64 571 88 q 577 68 585 48 q 541 18 488 4 q 435 -11 371 -11 q 300 -11 237 9 q 173 28 132 67 q 90 105 71 159 q 51 213 51 277 q 51 362 85 443 q 118 523 174 576 q 229 628 304 653 q 379 677 461 677 q 525 677 583 661 q 642 646 684 611 q 727 577 749 527 q 771 476 771 419 q 771 353 742 294 q 712 235 661 198 q 609 160 557 160 q 523 160 503 176 q 482 192 482 219 q 469 204 459 196 q 450 187 434 178 q 418 170 399 165 q 379 160 360 160 q 326 160 297 176 q 269 192 255 221 q 241 249 241 286 q 241 339 269 393 q 297 447 348 473 q 398 500 472 500 q 492 500 513 498 q 535 496 585 486 z m 512 443 q 485 450 461 450 q 416 450 381 431 q 346 412 325 372 q 305 333 305 292 q 305 270 313 251 q 321 232 339 221 q 356 209 379 209 q 398 209 416 216 q 433 223 448 236 q 462 249 473 266 q 483 283 489 301 q 494 318 500 357 q 506 396 512 443 z"},".":{"x_min":0,"x_max":225,"ha":225,"o":"m 55 0 l 59 90 l 109 89 q 120 89 154 90 q 152 69 151 53 l 149 0 q 117 1 104 1 q 92 1 55 0 z"},"p":{"x_min":0,"x_max":589,"ha":589,"o":"m 45 -221 q 55 -95 63 122 q 72 339 73 477 q 153 494 201 500 q 249 506 297 506 q 374 506 430 482 q 486 458 517 397 q 548 336 548 259 q 548 206 534 156 q 519 107 489 68 q 459 29 417 9 q 374 -11 322 -11 q 291 -11 262 -3 q 233 4 212 17 q 190 29 176 44 q 162 59 141 89 l 135 -104 q 133 -151 133 -172 l 133 -221 q 108 -220 90 -220 q 73 -220 45 -221 z m 157 418 l 153 381 l 151 331 q 149 291 148 265 q 147 240 147 230 q 147 194 155 162 q 162 129 185 103 q 208 76 238 62 q 269 49 302 49 q 348 49 385 74 q 422 100 443 150 q 464 200 464 260 q 464 320 442 363 q 420 407 383 426 q 346 445 299 445 q 232 445 157 418 z"},"X":{"x_min":0,"x_max":600,"ha":600,"o":"m -22 0 l 89 140 l 248 347 l 117 544 l 34 667 q 67 666 91 666 q 112 666 143 667 q 183 598 233 522 q 284 447 308 406 l 464 613 q 471 623 478 634 q 485 644 500 667 q 528 666 552 666 l 603 667 q 564 615 491 522 q 418 430 354 343 q 393 281 443 205 l 580 0 q 543 1 527 1 q 504 1 472 0 l 446 42 q 436 60 421 83 l 292 282 l 176 127 q 120 54 83 0 q 48 1 31 1 q 14 1 -22 0 z"},"*":{"x_min":0,"x_max":505,"ha":505,"o":"m 121 390 l 216 497 l 85 536 q 98 560 109 591 l 236 538 l 235 677 q 253 676 266 676 q 279 676 295 677 l 280 538 l 412 588 q 419 561 430 534 l 294 496 l 379 390 q 349 370 329 353 l 254 471 l 165 353 q 144 372 121 390 z"},"Y":{"x_min":0,"x_max":532,"ha":532,"o":"m 196 0 q 209 145 216 292 l 1 667 l 54 666 q 69 666 103 667 q 126 618 174 532 q 223 446 266 364 l 436 629 l 458 667 q 490 666 510 666 l 559 667 l 364 378 l 303 286 l 293 63 l 292 0 q 257 1 244 1 q 231 1 196 0 z"},"c":{"x_min":0,"x_max":472,"ha":472,"o":"m 419 74 q 418 66 414 45 q 410 24 407 3 q 371 -5 338 -8 q 305 -11 280 -11 q 228 -11 183 3 q 138 18 105 50 q 72 83 56 131 q 41 179 41 232 q 41 304 66 368 q 91 433 146 469 q 201 506 295 506 q 364 506 430 487 q 433 446 436 419 q 389 434 360 439 q 331 444 306 444 q 263 444 229 428 q 195 413 171 384 q 147 355 136 315 q 126 276 126 235 q 126 180 143 138 q 160 97 203 74 q 246 51 299 51 q 351 51 419 74 z"},"!":{"x_min":0,"x_max":274,"ha":274,"o":"m 91 146 l 102 495 l 104 620 l 105 667 q 137 666 152 666 l 197 667 q 191 602 188 531 l 168 146 q 146 146 133 146 q 114 146 91 146 z m 75 0 l 77 28 q 78 40 79 58 l 80 88 q 115 87 131 87 q 145 87 180 88 q 179 69 175 0 q 143 1 126 1 q 105 1 75 0 z"},"/":{"x_min":0,"x_max":415,"ha":415,"o":"m -91 -220 l 18 -2 l 298 574 l 341 667 l 373 666 l 404 667 l 22 -120 l -24 -220 q -45 -219 -56 -219 q -67 -219 -91 -220 z"},"[":{"x_min":0,"x_max":320,"ha":320,"o":"m 116 667 q 161 666 205 666 q 250 666 294 667 q 291 646 291 615 q 267 616 241 616 q 216 616 190 615 l 170 146 l 160 -169 q 183 -169 210 -169 q 238 -169 261 -169 q 260 -176 259 -195 q 258 -213 258 -220 q 219 -219 170 -219 q 120 -219 82 -220 q 104 181 116 667 z"},"6":{"x_min":0,"x_max":571,"ha":571,"o":"m 251 386 q 280 391 296 393 q 312 395 327 395 q 379 395 422 377 q 464 360 491 316 q 519 272 519 213 q 519 171 504 130 q 489 89 457 55 q 425 21 378 5 q 332 -11 278 -11 q 231 -11 187 3 q 143 16 112 44 q 80 73 66 112 q 51 151 51 191 q 51 226 59 268 q 66 310 94 373 q 121 435 165 506 q 209 576 277 667 q 312 666 332 666 q 356 666 389 667 q 331 597 308 566 q 268 514 232 455 q 197 396 175 345 q 153 294 146 261 q 138 228 138 195 q 138 151 154 121 q 170 90 202 71 q 234 52 277 52 q 322 52 357 72 q 393 91 411 127 q 428 164 428 206 q 428 243 415 272 q 401 302 370 317 q 339 333 295 333 q 261 333 216 322 q 245 371 251 386 z"},"r":{"x_min":0,"x_max":350,"ha":350,"o":"m 54 0 q 71 282 71 450 l 71 495 q 96 494 112 494 q 130 494 153 495 l 149 414 q 167 444 181 459 q 195 475 213 485 q 230 495 253 500 q 275 506 299 506 q 319 506 339 501 q 340 469 343 429 q 312 437 289 437 q 260 437 237 427 q 214 418 196 399 q 177 379 166 353 q 156 331 151 297 q 146 263 143 172 q 141 106 141 33 l 141 0 q 114 1 98 1 q 83 1 54 0 z"},"2":{"x_min":0,"x_max":571,"ha":571,"o":"m 56 0 q 58 17 59 67 q 140 146 207 218 q 274 291 330 359 q 377 417 396 451 q 408 471 412 487 q 416 502 416 517 q 416 551 396 572 q 376 594 344 604 q 312 615 271 615 q 201 615 92 587 q 99 622 104 658 q 202 677 297 677 q 341 677 382 669 q 423 660 454 640 q 485 620 500 592 q 515 565 515 533 q 515 514 511 496 q 507 479 500 463 q 487 433 466 400 q 444 368 395 308 q 346 249 291 189 q 235 129 166 61 q 200 60 282 60 q 328 60 385 61 q 443 62 490 66 q 486 24 485 0 q 398 1 276 1 l 187 0 z"},"{":{"x_min":0,"x_max":398,"ha":398,"o":"m 177 222 q 188 216 195 211 q 202 207 208 198 q 215 189 219 178 q 223 167 225 153 q 227 139 227 119 q 227 93 225 51 l 220 -20 q 218 -47 218 -71 q 218 -100 221 -114 q 224 -129 230 -139 q 237 -149 247 -156 q 258 -162 273 -165 q 289 -168 310 -169 q 307 -187 306 -220 q 268 -220 243 -216 q 206 -208 187 -195 q 168 -182 158 -157 q 146 -129 146 -85 q 146 -71 149 -24 l 154 66 q 157 110 157 125 q 157 142 154 155 q 150 168 145 176 q 140 184 132 191 q 123 198 116 201 q 109 205 100 207 q 102 221 103 239 q 116 243 126 250 q 141 259 148 269 q 156 278 160 293 q 164 308 165 338 q 166 353 167 431 q 168 510 170 539 q 172 568 181 590 q 189 612 202 626 q 214 641 235 650 q 255 660 280 663 q 305 667 342 667 q 339 649 338 615 q 311 614 295 609 q 280 604 271 598 q 263 592 256 582 q 250 572 246 557 q 242 542 240 508 q 238 474 238 429 q 238 413 238 379 q 237 345 235 320 q 232 295 229 280 q 225 266 218 255 q 211 245 203 238 q 194 230 177 222 z"},"9":{"x_min":0,"x_max":571,"ha":571,"o":"m 191 0 q 305 148 370 265 q 435 382 435 469 q 435 511 418 546 q 401 580 369 598 q 338 615 296 615 q 254 615 218 596 q 183 578 163 544 q 144 511 144 471 q 144 432 158 403 q 173 374 205 358 q 238 343 282 343 q 300 343 318 345 q 336 348 372 357 q 355 329 335 291 q 292 282 256 282 q 196 282 147 304 q 99 326 77 367 q 55 408 55 460 q 55 524 87 575 q 119 625 175 651 q 231 678 300 678 q 350 678 395 663 q 439 648 469 619 q 498 589 510 551 q 523 512 523 475 q 523 446 517 410 q 511 375 496 334 q 481 294 456 244 q 431 195 395 138 q 359 81 305 0 q 277 0 250 0 q 232 0 191 0 z"}," ":{"x_min":0,"x_max":250,"ha":250,"o":""},"I":{"x_min":0,"x_max":249,"ha":249,"o":"m 66 0 l 73 112 l 83 346 l 90 577 q 91 597 91 617 l 90 667 l 141 666 l 188 667 q 179 544 175 412 q 167 199 164 0 l 118 1 q 109 1 66 0 z"},"H":{"x_min":0,"x_max":737,"ha":737,"o":"m 66 0 l 82 294 l 90 519 l 91 596 q 92 613 92 667 l 142 666 l 188 667 l 174 374 l 570 374 l 579 606 q 580 618 580 667 l 629 666 l 676 667 q 663 473 657 319 q 652 165 650 0 l 602 1 q 595 1 552 0 q 564 152 567 309 l 171 309 l 164 108 l 162 0 l 113 1 q 106 1 66 0 z"},"4":{"x_min":0,"x_max":571,"ha":571,"o":"m 317 0 q 325 90 330 230 l 49 228 q 51 241 52 264 q 53 288 53 305 q 89 351 145 427 l 240 557 q 280 611 316 667 q 349 666 378 666 q 407 666 435 667 q 423 483 417 293 l 432 292 q 504 292 512 293 q 520 293 528 295 q 526 270 526 239 l 526 228 q 487 230 414 230 l 410 86 q 409 50 409 39 q 409 26 410 0 q 383 1 365 1 q 348 1 317 0 z m 339 291 q 340 321 340 327 l 350 605 l 122 291 z"},"~":{"x_min":0,"x_max":669,"ha":669,"o":"m 138 239 l 95 271 q 103 287 110 300 q 118 313 130 329 q 142 345 152 353 q 162 362 175 369 q 188 376 202 380 q 216 384 231 384 q 247 384 263 379 q 279 375 300 366 q 321 358 351 343 q 381 328 395 323 q 408 317 419 314 q 431 312 440 312 q 468 312 490 330 q 511 348 532 386 l 575 354 q 566 336 560 325 q 553 313 542 299 q 531 285 518 274 q 505 264 491 257 q 477 250 461 246 q 445 243 432 243 q 424 243 415 244 q 406 246 390 251 q 375 256 366 260 q 357 264 318 283 q 278 303 260 308 q 242 313 228 313 q 203 313 181 296 q 159 278 138 239 z"},"D":{"x_min":0,"x_max":737,"ha":737,"o":"m 65 0 l 79 201 l 94 596 q 94 620 94 667 q 156 666 199 666 q 227 666 284 667 q 341 667 365 667 q 446 667 501 655 q 543 646 578 622 q 613 599 641 561 q 668 523 681 478 q 697 423 697 363 q 697 282 668 207 q 639 132 582 82 q 525 32 455 16 q 384 0 297 0 l 161 1 q 148 1 65 0 z m 159 65 q 219 64 270 64 q 313 64 358 68 q 402 72 438 83 q 473 95 507 124 q 542 153 563 190 q 585 227 596 272 q 606 318 606 365 q 606 417 593 462 q 579 507 546 543 q 513 580 468 592 q 423 604 349 604 q 257 604 182 602 z"},"^":{"x_min":0,"x_max":502,"ha":502,"o":"m 106 373 l 31 373 l 206 668 l 297 668 l 471 373 l 396 373 l 250 614 z"},"0":{"x_min":0,"x_max":571,"ha":571,"o":"m 305 677 q 341 677 373 668 q 405 659 436 635 q 467 610 488 568 q 508 527 518 477 q 527 427 527 371 q 527 296 512 222 q 496 148 466 96 q 436 43 385 16 q 333 -11 273 -11 q 203 -11 152 24 q 102 59 75 127 q 49 195 49 286 q 49 362 64 437 q 79 512 111 568 q 142 624 194 650 q 246 677 305 677 z m 302 615 q 280 615 259 606 q 237 598 218 581 q 198 563 185 540 q 172 516 160 479 q 148 441 142 389 q 136 337 136 283 q 136 232 143 192 q 148 159 164 127 q 175 104 194 86 q 212 68 233 60 q 253 52 277 52 q 301 52 323 61 q 345 69 367 92 q 389 115 406 160 q 424 205 432 261 q 440 317 440 375 q 440 423 435 459 q 429 495 417 527 q 404 559 384 579 q 364 599 344 607 q 324 615 302 615 z"},"F":{"x_min":0,"x_max":533,"ha":533,"o":"m 66 0 l 72 89 q 74 120 76 155 l 86 446 l 89 563 q 90 600 90 628 l 90 667 q 206 666 309 666 l 430 667 l 502 667 q 498 622 498 599 q 436 603 323 603 l 180 602 l 172 371 l 266 369 q 399 369 459 371 q 456 335 456 304 q 366 306 304 306 q 243 306 168 304 q 163 125 163 0 l 116 1 q 113 1 66 0 z"},"`":{"x_min":0,"x_max":500,"ha":500,"o":"m 303 559 q 289 560 274 560 q 256 560 244 559 q 195 639 162 687 q 189 686 211 686 q 237 686 261 687 z"},"k":{"x_min":0,"x_max":479,"ha":479,"o":"m 56 0 l 64 132 l 75 386 l 80 598 q 81 645 81 667 l 126 666 q 139 666 168 667 q 162 588 153 361 q 144 134 143 0 q 112 1 100 1 q 86 1 56 0 z m 157 276 l 256 382 q 309 438 355 495 q 389 494 404 494 q 423 494 456 495 l 245 275 q 304 198 474 0 q 443 1 425 1 q 406 1 375 0 l 303 95 q 292 108 257 151 l 182 243 z"},"u":{"x_min":0,"x_max":596,"ha":596,"o":"m 520 0 q 496 1 479 1 q 459 1 438 0 l 440 94 q 429 72 420 60 q 412 48 399 37 q 386 25 373 18 q 359 10 341 4 q 323 -2 299 -7 q 275 -11 248 -11 q 188 -11 146 7 q 104 25 82 59 q 60 92 60 149 q 60 158 61 179 q 62 200 64 234 l 72 396 l 74 449 q 74 467 74 495 l 119 494 q 133 494 161 495 q 154 409 148 308 q 142 206 142 178 q 142 135 156 109 q 170 83 202 70 q 235 56 276 56 q 312 56 345 68 q 374 80 393 99 q 414 120 428 153 q 438 177 444 216 q 447 244 451 316 q 455 404 456 495 l 501 494 q 516 494 542 495 q 536 407 526 228 q 521 129 520 0 z"},"]":{"x_min":0,"x_max":320,"ha":320,"o":"m 188 -220 q 158 -219 100 -219 q 41 -219 11 -220 q 13 -201 14 -169 q 35 -169 64 -169 q 91 -169 115 -169 l 135 300 l 145 615 q 119 616 94 616 q 69 616 44 615 q 45 624 46 641 q 47 659 47 667 q 83 666 135 666 q 188 666 223 667 q 201 266 188 -220 z"},"U":{"x_min":0,"x_max":726,"ha":726,"o":"m 90 667 l 138 666 l 186 667 l 164 294 l 162 249 l 162 239 q 162 171 182 134 q 202 97 246 76 q 290 56 356 56 q 401 56 439 67 q 471 78 493 95 q 516 112 530 137 q 544 161 550 191 q 557 229 562 324 l 571 481 q 575 568 576 667 l 626 666 l 672 667 l 658 437 l 649 246 q 645 180 635 143 q 627 117 613 94 q 601 74 582 58 q 560 38 529 23 q 496 7 458 0 q 405 -11 348 -11 q 292 -11 244 0 q 202 10 167 30 q 132 50 111 76 q 93 96 83 127 q 71 163 71 205 q 71 250 75 309 q 79 368 84 486 q 90 604 90 667 z"},"o":{"x_min":0,"x_max":589,"ha":589,"o":"m 301 506 q 353 506 399 491 q 445 477 479 445 q 513 413 531 365 q 548 316 548 263 q 548 205 530 151 q 511 98 477 61 q 443 24 394 7 q 345 -11 289 -11 q 236 -11 190 5 q 144 21 110 54 q 76 87 58 135 q 41 183 41 236 q 41 315 73 379 q 105 443 167 474 q 230 506 301 506 z m 299 444 q 250 444 208 419 q 166 394 146 344 q 126 294 126 235 q 126 183 143 142 q 159 101 197 75 q 235 50 289 50 q 326 50 358 62 q 391 75 416 104 q 440 132 452 174 q 463 216 463 262 q 463 305 452 342 q 440 380 416 403 q 392 425 361 435 q 331 444 299 444 z"},"N":{"x_min":0,"x_max":755,"ha":755,"o":"m 65 0 l 75 136 l 92 532 l 94 609 q 94 646 94 667 q 131 666 155 666 q 175 666 211 667 l 265 581 l 587 94 l 608 667 l 651 666 l 694 667 l 684 496 l 670 194 l 665 0 q 636 1 608 1 q 583 1 549 0 l 504 72 l 173 567 q 171 540 169 481 l 156 136 l 153 0 q 121 1 110 1 q 103 1 65 0 z"},"+":{"x_min":0,"x_max":571,"ha":571,"o":"m 55 314 q 58 342 59 373 q 189 371 260 371 l 266 577 q 275 576 297 576 q 320 576 329 577 q 327 552 326 517 l 318 371 l 401 371 q 424 371 524 373 q 521 348 520 314 q 393 316 316 316 l 310 110 q 300 111 279 111 q 257 111 247 110 q 249 134 251 193 l 257 316 l 181 316 q 153 316 55 314 z"},"G":{"x_min":0,"x_max":746,"ha":746,"o":"m 444 374 q 528 373 574 373 q 622 373 683 374 q 672 228 667 21 q 519 -11 414 -11 q 336 -11 265 9 q 194 29 146 70 q 97 111 72 176 q 47 240 47 312 q 47 394 78 466 q 109 538 166 586 q 222 635 292 656 q 362 677 448 677 q 542 677 657 652 q 658 616 662 573 q 593 596 543 604 q 494 613 452 613 q 386 613 326 593 q 267 573 224 532 q 182 492 160 432 q 138 372 138 308 q 138 250 156 200 q 173 150 209 119 q 246 87 298 70 q 350 53 411 53 q 444 53 490 59 q 536 65 583 80 l 592 311 l 546 311 q 500 311 441 309 q 444 344 444 374 z"},"q":{"x_min":0,"x_max":586,"ha":586,"o":"m 418 -220 l 425 -104 q 427 -62 428 -31 l 434 102 q 414 70 398 53 q 383 36 360 21 q 336 6 308 -2 q 279 -11 247 -11 q 204 -11 164 6 q 125 22 96 53 q 68 84 54 126 q 41 168 41 214 q 41 280 66 340 q 91 401 136 439 q 181 477 238 491 q 296 506 363 506 q 390 506 423 503 q 457 501 533 488 l 525 383 l 517 193 l 509 -75 l 506 -220 q 480 -220 463 -220 z m 441 432 q 408 440 388 442 q 369 444 353 444 q 284 444 231 416 q 178 388 151 333 q 124 278 124 212 q 124 167 140 131 q 155 94 189 72 q 224 50 266 50 q 302 50 334 65 q 365 80 389 111 q 413 141 425 181 q 431 204 435 243 q 439 296 441 432 z"},"d":{"x_min":0,"x_max":593,"ha":593,"o":"m 517 0 q 488 1 477 1 q 465 1 435 0 l 440 105 q 425 78 414 63 q 402 48 387 35 q 372 22 351 11 q 331 1 306 -5 q 281 -11 253 -11 q 206 -11 165 6 q 124 23 95 55 q 66 87 53 129 q 41 171 41 217 q 41 279 64 338 q 88 398 132 437 q 176 476 231 491 q 286 506 348 506 q 391 506 450 496 q 453 549 453 584 q 453 635 452 667 l 497 666 q 513 666 541 667 l 527 391 l 517 76 z m 447 435 q 417 443 397 446 q 376 448 356 448 q 310 448 267 435 q 224 421 192 391 q 159 360 142 312 q 124 265 124 220 q 124 174 141 135 q 157 96 192 73 q 227 51 273 51 q 301 51 324 59 q 347 66 366 81 q 385 96 401 121 q 418 146 428 178 q 436 207 440 256 q 442 280 444 348 z"},"1":{"x_min":0,"x_max":571,"ha":571,"o":"m 251 0 q 257 76 261 173 l 270 391 q 275 514 277 584 q 251 568 237 559 l 204 537 q 208 583 208 617 q 270 653 288 667 q 304 666 329 666 q 355 666 374 667 l 361 458 l 349 169 l 347 96 q 346 68 346 40 l 347 0 q 322 1 301 1 q 277 1 251 0 z"},"5":{"x_min":0,"x_max":571,"ha":571,"o":"m 79 8 q 76 49 72 80 q 122 65 154 60 q 187 55 216 55 q 257 55 294 66 q 332 76 359 99 q 386 121 401 152 q 416 183 416 217 q 416 254 396 283 q 376 311 339 325 q 301 339 241 339 q 178 339 94 324 l 125 667 q 247 666 321 666 l 393 666 l 505 667 q 502 637 502 599 l 442 603 l 405 603 l 340 604 q 292 605 252 605 l 209 604 l 188 384 q 240 392 281 392 q 327 392 365 384 q 402 377 428 364 q 454 352 474 330 q 494 308 505 279 q 515 250 515 219 q 515 168 492 122 q 468 77 427 47 q 386 18 333 3 q 279 -11 223 -11 q 204 -11 175 -8 q 146 -5 127 -2 q 108 1 79 8 z"}}}
